<svg width="67" height="24" viewBox="0 0 67 24" fill="none" xmlns="http://www.w3.org/2000/svg">
<path d="M0.248356 15.3527C0.0822145 15.1865 0 14.9245 0 14.5648V6.29022C0 6.04186 0.0445329 5.8723 0.135311 5.78152C0.22609 5.69245 0.414498 5.64621 0.705675 5.64621H2.6754C2.84154 5.64621 2.96829 5.67019 3.05907 5.71814C3.14813 5.7661 3.20123 5.85346 3.21493 5.97678L3.31941 6.61908C3.70651 6.21828 4.14156 5.90313 4.62628 5.67532C5.10929 5.44752 5.67623 5.33276 6.32709 5.33276C6.90773 5.33276 7.40616 5.43724 7.82066 5.64449C8.23516 5.85174 8.58799 6.17032 8.87746 6.59853C9.25085 6.19773 9.68248 5.886 10.1741 5.66505C10.6639 5.4441 11.2548 5.33276 11.9468 5.33276C13.0105 5.33276 13.8412 5.64107 14.4355 6.25596C15.0298 6.87086 15.3279 7.80091 15.3279 9.04441V14.5596C15.3279 14.9193 15.2457 15.1814 15.0795 15.3475C14.9134 15.5137 14.6308 15.5959 14.23 15.5959H12.5497C12.1489 15.5959 11.8646 15.5137 11.7002 15.3475C11.534 15.1814 11.4518 14.9193 11.4518 14.5596V9.31332C11.4518 8.91252 11.3799 8.62135 11.2343 8.44321C11.0887 8.26337 10.8712 8.1743 10.5817 8.1743C10.2494 8.1743 9.99078 8.28221 9.80408 8.49631C9.61739 8.71041 9.5249 9.01187 9.5249 9.39896V14.5631C9.5249 14.9227 9.44268 15.1848 9.27654 15.3509C9.1104 15.5171 8.82779 15.5993 8.42699 15.5993H6.91287C6.51208 15.5993 6.22775 15.5171 6.06332 15.3509C5.89718 15.1848 5.81497 14.9227 5.81497 14.5631V9.27564C5.81497 8.54256 5.53064 8.17602 4.96542 8.17602C4.61943 8.17602 4.35052 8.28735 4.15697 8.5083C3.96343 8.72925 3.8658 9.03413 3.8658 9.42123V14.5631C3.8658 14.9227 3.78701 15.1848 3.62772 15.3509C3.46843 15.5171 3.18924 15.5993 2.78844 15.5993H1.09962C0.698824 15.601 0.414498 15.5188 0.248356 15.3527Z" fill="#3D348B"/>
<path d="M17.4501 14.6573C16.669 13.8214 16.2785 12.643 16.2785 11.122C16.2785 9.96075 16.544 8.94506 17.0767 8.07324C17.6094 7.20314 18.363 6.52829 19.3376 6.05213C20.3122 5.57597 21.4358 5.33618 22.7067 5.33618C23.7566 5.33618 24.6867 5.45094 25.4951 5.67874C26.3035 5.90655 27.0469 6.2354 27.7235 6.6636V14.9587C27.7235 15.2208 27.6755 15.3938 27.5779 15.4777C27.4802 15.5599 27.2884 15.6027 26.9972 15.6027H24.8819C24.7295 15.6027 24.613 15.5787 24.5291 15.5308C24.4469 15.4828 24.3766 15.4023 24.3218 15.2927L24.0529 14.671C23.6521 15.0992 23.1708 15.4143 22.6124 15.6147C22.0541 15.8151 21.3707 15.9162 20.5708 15.9162C19.2708 15.9127 18.2311 15.4948 17.4501 14.6573ZM23.3901 12.6978C23.6932 12.4357 23.8457 12.0624 23.8457 11.5776V8.34386C23.5836 8.21883 23.2513 8.15717 22.8505 8.15717C22.1174 8.15717 21.5334 8.41238 21.0983 8.9245C20.6633 9.43663 20.4458 10.1543 20.4458 11.0809C20.4458 12.422 21.0058 13.0918 22.126 13.0918C22.6655 13.0918 23.0869 12.9599 23.3901 12.6978Z" fill="#3D348B"/>
<path d="M29.7565 15.3527C29.5904 15.1865 29.5082 14.9245 29.5082 14.5648V6.29022C29.5082 6.04186 29.5527 5.8723 29.6435 5.78152C29.7326 5.69245 29.9227 5.64621 30.2139 5.64621H32.3497C32.5159 5.64621 32.6426 5.67019 32.7334 5.71814C32.8225 5.7661 32.8756 5.85346 32.8893 5.97678L32.9937 6.59853C33.3808 6.21143 33.8878 5.90313 34.5181 5.67532C35.1467 5.44752 35.849 5.33276 36.6232 5.33276C37.7433 5.33276 38.6477 5.64792 39.3397 6.27652C40.0299 6.90512 40.3759 7.83517 40.3759 9.06496V14.5596C40.3759 14.9193 40.2971 15.1814 40.1378 15.3475C39.9785 15.5137 39.6994 15.5959 39.2986 15.5959H37.2877C36.8869 15.5959 36.5992 15.5137 36.4279 15.3475C36.2549 15.1814 36.1693 14.9193 36.1693 14.5596V9.33387C36.1693 8.91937 36.0785 8.62135 35.9004 8.4415C35.7205 8.26166 35.4362 8.17259 35.0508 8.17259C34.6363 8.17259 34.3075 8.28392 34.0659 8.50488C33.8244 8.72583 33.7028 9.03071 33.7028 9.4178V14.5596C33.7028 14.9193 33.624 15.1814 33.4648 15.3475C33.3055 15.5137 33.0263 15.5959 32.6255 15.5959H30.6147C30.2053 15.601 29.9227 15.5188 29.7565 15.3527Z" fill="#3D348B"/>
<path d="M44.9662 18.8468C44.103 18.6601 43.4624 18.422 43.0479 18.1308C42.9502 18.0486 42.9023 17.9578 42.9023 17.8619C42.9023 17.7934 42.9228 17.7232 42.9639 17.6547L43.8563 16.0172C43.8974 15.9487 43.942 15.8888 43.9916 15.8408C44.0396 15.7928 44.091 15.7689 44.1475 15.7689C44.1749 15.7689 44.2588 15.7963 44.3959 15.8511C45.045 16.1834 45.9442 16.3495 47.0918 16.3495C47.741 16.3495 48.2325 16.2108 48.5648 15.935C48.8971 15.6575 49.0632 15.2088 49.0632 14.587C48.7858 14.7806 48.4415 14.9364 48.027 15.0529C47.6125 15.1711 47.1689 15.2293 46.6996 15.2293C45.0536 15.2293 43.7998 14.8217 42.9365 14.0064C42.0733 13.1911 41.64 12.0093 41.64 10.4609C41.64 8.77377 42.1658 7.49945 43.2157 6.63448C44.2657 5.77123 45.8209 5.33789 47.8814 5.33789C48.9177 5.33789 49.9059 5.48348 50.8463 5.77294C51.7866 6.06241 52.5676 6.42895 53.1894 6.87256V13.4874C53.1894 15.1745 52.7047 16.5362 51.7386 17.5724C50.7709 18.6087 49.3613 19.1277 47.508 19.1277C46.6773 19.126 45.8312 19.0335 44.9662 18.8468ZM49.1043 10.8737V8.36441C48.8132 8.23938 48.3302 8.17772 47.6536 8.17772C47.0456 8.17772 46.5865 8.33016 46.2748 8.63332C45.9631 8.9382 45.8089 9.48287 45.8089 10.2708C45.8089 10.9764 45.9545 11.4903 46.244 11.8157C46.5351 12.1411 46.9908 12.3021 47.6125 12.3021C48.6059 12.3039 49.1043 11.8277 49.1043 10.8737Z" fill="#3D348B"/>
<path d="M55.6147 14.4911C54.5648 13.5439 54.0389 12.2559 54.0389 10.6236C54.0389 8.99302 54.5648 7.70328 55.6147 6.7561C56.6647 5.80892 58.1377 5.33618 60.032 5.33618C61.9264 5.33618 63.4011 5.81063 64.4596 6.7561C65.5164 7.70328 66.0457 8.99302 66.0457 10.6236C66.0457 12.2542 65.5164 13.5439 64.4596 14.4911C63.4028 15.4383 61.9264 15.911 60.032 15.911C58.1377 15.9127 56.6647 15.4383 55.6147 14.4911ZM61.8562 10.6236C61.8562 9.10263 61.2481 8.34215 60.032 8.34215C58.8159 8.34215 58.2079 9.10263 58.2079 10.6236C58.2079 11.3978 58.3672 11.9784 58.6841 12.3655C59.0026 12.7526 59.4514 12.9462 60.032 12.9462C61.2481 12.9462 61.8562 12.172 61.8562 10.6236Z" fill="#3D348B"/>
<path d="M32.2504 21.3338C29.9518 21.2653 28.0883 19.5627 27.643 17.3789C27.6173 17.2556 27.5128 17.1648 27.3877 17.1648H25.2159C25.0549 17.1648 24.935 17.3087 24.959 17.468C25.5054 21.1608 28.7015 24.0657 32.5296 23.9989C36.284 23.9338 39.3774 21.1042 39.8552 17.4628C39.8758 17.3052 39.7559 17.1631 39.5966 17.1631H37.4248C37.298 17.1631 37.1918 17.2556 37.1679 17.3806C36.7328 19.6775 34.6826 21.4057 32.2504 21.3338Z" fill="#F7B801"/>
<path d="M47.7084 0.336495C46.4872 0.807516 45.4646 1.7684 44.9114 2.95366L48.3986 1.46009L45.0124 3.25682C46.2354 3.71757 47.9413 3.79122 49.118 3.31163C50.3598 2.80465 51.2539 1.73928 51.7626 0.499212C50.5088 -0.103695 49.0067 -0.163643 47.7084 0.336495Z" fill="#F7B801"/>
</svg>
